
<svg width="250px" height="90px" viewBox="0 0 74 63" version="1.1" xmlns="http://www.w3.org/2000/svg" xmlns:xlink="http://www.w3.org/1999/xlink">
    <g id="MainScreen" stroke="none" stroke-width="1" fill="none" fill-rule="evenodd">
        <g id="main-2" transform="translate(-351.000000, -224.000000)">
            <g id="ячейки" transform="translate(24.000000, 154.000000)">
                <g id="Cash" transform="translate(249.000000, 0.000000)">
                    <g id="иклнка" transform="translate(75.000000, 60.000000)">
                        <rect id="Rectangle-2" x="0" y="0" width="80" height="80"></rect>
                        <g id="icon">
                            <rect id="bounds" x="0" y="0" width="80" height="80"></rect>
                            <path d="M45.0155054,56.9849836 C45.0174329,48.244757 52.104349,41.1609658 60.8445756,41.1628932 C69.5848022,41.1648205 76.6685935,48.2517365 76.6666663,56.9919632 C76.6647391,65.7321898 69.5778232,72.8159811 60.8375966,72.8140541 C56.6399655,72.8145177 52.6142275,71.1467428 49.6467087,68.177915 C46.6791899,65.2090872 45.0131906,61.182614 45.0155054,56.9849836 Z M55.770619,61.7082303 C55.6118397,62.2089956 55.4652742,62.7411678 55.3274329,63.2558918 C55.1407364,63.9538226 55.2000605,64.1283053 55.8700741,64.4493535 C56.723077,64.8411618 57.6299956,65.1028861 58.5605973,65.2258015 C59.289935,65.3357256 59.3195971,65.3653876 59.3195971,66.1331115 C59.3387902,66.4820769 59.3387902,66.8153389 59.3387902,67.1590698 C59.3127204,67.3392852 59.3701152,67.5215665 59.494734,67.6543347 C59.6193527,67.7871029 59.7976381,67.8559141 59.9791417,67.8412971 C60.4711829,67.8517661 60.984162,67.8517661 61.4866722,67.8412971 C61.6606827,67.8553245 61.8317395,67.7901289 61.9522712,67.6638415 C62.0728029,67.5375541 62.129954,67.3636441 62.1078306,67.1904767 C62.1078306,66.7176286 62.1182996,66.2430356 62.1078306,65.7789116 C62.0770239,65.5835508 62.1268769,65.384055 62.2459625,65.2261514 C62.3650481,65.0682479 62.5431547,64.9654768 62.739458,64.9413947 C63.7796597,64.6695751 64.7076908,64.0767341 65.391595,63.2471677 C66.2900719,62.1362503 66.6387151,60.678952 66.3402937,59.2816894 C66.0418723,57.8844268 65.1283166,56.6967036 63.8544024,56.0497563 C62.9968066,55.5930665 62.1109638,55.1915233 61.2022654,54.8475705 C60.6825106,54.6394154 60.1921445,54.3643177 59.74359,54.0292467 C59.34764,53.7549503 59.1399875,53.2809922 59.2067641,52.8039642 C59.2735406,52.3269361 59.6033547,51.9282151 60.0594037,51.7731854 C60.3431292,51.6524686 60.6479166,51.5890207 60.9562448,51.5864889 C62.1081879,51.5184712 63.2583927,51.7461096 64.2975885,52.2477783 C64.8297607,52.502523 65.0077331,52.422261 65.1857054,51.8726405 C65.3724019,51.2793993 65.5346708,50.7001168 65.7091535,50.1068756 C65.7791652,49.9469286 65.7758379,49.7643833 65.7000439,49.607094 C65.6242499,49.4498047 65.4835478,49.333457 65.3148226,49.2885517 C64.6446299,48.9808246 63.9345232,48.7687911 63.2053268,48.6586692 C62.2404375,48.5086141 62.2404375,48.5086141 62.2404375,47.5437247 C62.2404375,46.1845045 62.2404375,46.1845045 60.8707483,46.1845045 L60.2897209,46.1845045 C59.6580935,46.2124217 59.5411901,46.310132 59.5307211,46.9609525 L59.5307211,47.8089384 C59.5307211,48.6673933 59.511528,48.6569244 58.7019283,48.9535449 C56.7922047,49.4821579 55.4486794,51.1919706 55.386757,53.1725366 C55.2889923,54.911691 56.2549703,56.536604 57.8295148,57.2816042 C58.8147627,57.8026533 59.8323293,58.2601503 60.8759828,58.6512934 C61.2747974,58.8114116 61.6471521,59.0308244 61.9804582,59.3021138 C62.4396204,59.6292979 62.679325,60.1842342 62.6027712,60.7428207 C62.5262174,61.3014071 62.1460484,61.7713903 61.6157894,61.962975 C61.003447,62.2221826 60.3314328,62.3073164 59.673797,62.2089956 C58.634737,62.1029716 57.6249254,61.8022774 56.6971221,61.3226235 C56.5515798,61.2338465 56.3884289,61.177875 56.2190395,61.1586098 C55.9939568,61.1586098 55.8875224,61.3261132 55.7688741,61.7082303 L55.770619,61.7082303 Z M36.2285566,71.9084889 C35.786945,71.9094157 35.3631032,71.7346354 35.0505087,71.4226956 C34.7379143,71.1107559 34.5622459,70.6872813 34.5622469,70.2456687 L34.5622469,29.9680824 L29.2300556,29.9680824 C28.7729596,29.9705505 28.3509055,29.7235252 28.1292254,29.3237742 C27.9075454,28.9240233 27.9215338,28.4351926 28.1657111,28.0487727 L39.0377281,10.6005028 C39.2651749,10.2275476 39.6704689,10 40.107307,10 C40.5441452,10 40.9494392,10.2275476 41.176886,10.6005028 L52.0401789,28.0487727 C52.2827015,28.4325521 52.2982822,28.9175979 52.0808897,29.3161507 C51.8634973,29.7147035 51.4472527,29.9642082 50.9932827,29.9680824 L45.6506224,29.9680824 L45.6506224,43.7295329 C38.98138,51.3140692 38.9731664,62.6689403 45.6314293,70.263117 C45.6291243,70.702421 45.4521573,71.1227631 45.1395605,71.431432 C44.8269637,71.7401009 44.4044175,71.9117388 43.9651195,71.9084889 L36.2285566,71.9084889 Z M20.6245688,71.9084889 C20.1829572,71.9094157 19.7591153,71.7346354 19.4465209,71.4226956 C19.1339265,71.1107559 18.9582581,70.6872813 18.9582591,70.2456687 L18.9582591,40.4649616 C18.9577954,40.0228868 19.1332037,39.598785 19.4457979,39.2861907 C19.7583922,38.9735965 20.182494,38.7981882 20.6245688,38.7986518 L28.3524076,38.7986518 C28.7944824,38.7981882 29.2185842,38.9735965 29.5311785,39.2861907 C29.8437728,39.598785 30.019181,40.0228868 30.0187174,40.4649616 L30.0187174,70.2456687 C30.0187183,70.6872813 29.8430499,71.1107559 29.5304555,71.4226956 C29.2178611,71.7346354 28.7940192,71.9094157 28.3524076,71.9084889 L20.6245688,71.9084889 Z M4.99964311,71.9084889 C4.55803148,71.9094157 4.13418962,71.7346354 3.8215952,71.4226956 C3.50900078,71.1107559 3.33333236,70.6872813 3.33333333,70.2456687 L3.33333333,49.6933516 C3.33908959,48.7771651 4.08343856,48.0374927 4.99964311,48.0375108 L12.7274819,48.0375108 C13.1681676,48.0356562 13.5914903,48.20918 13.9040854,48.5198111 C14.2166804,48.8304422 14.3928688,49.2526629 14.3937916,49.6933516 L14.3937916,70.2456687 C14.3951937,70.68771 14.2199746,71.1120001 13.9070751,71.4242442 C13.5941757,71.7364884 13.1695192,71.9108176 12.7274819,71.9084889 L4.99964311,71.9084889 Z" id="Union_36" fill="#FFFFFF" fill-rule="nonzero"></path>
                        </g>
                    </g>
                </g>
            </g>
        </g>
    </g>
</svg>