<svg width="150px" height="100px" viewBox="0 0 74 57" version="1.1" xmlns="http://www.w3.org/2000/svg" xmlns:xlink="http://www.w3.org/1999/xlink">
    <g id="MainScreen" stroke="none" stroke-width="1" fill="none" fill-rule="evenodd">
        <g id="main" transform="translate(-102.000000, -227.000000)">
            <g id="ячейки" transform="translate(24.000000, 154.000000)">
                <g id="company">
                    <g id="иклнка" transform="translate(75.000000, 60.000000)">
                        <rect id="Rectangle-2" x="0" y="0" width="80" height="80"></rect>
                        <g id="icon">
                            <rect id="bounds" x="0" y="0" width="80" height="80"></rect>
                            <path d="M60,70 L60,20 L72.1979921,20 C74.6659729,20 76.6666667,22.1600929 76.6666667,24.8247025 L76.6666667,70 L60,70 Z M63.3333333,60 L70,60 L70,53.3333333 L63.3333333,53.3333333 L63.3333333,60 Z M63.3333333,46.6666667 L70,46.6666667 L70,40 L63.3333333,40 L63.3333333,46.6666667 Z M63.3333333,33.3333333 L70,33.3333333 L70,26.6666667 L63.3333333,26.6666667 L63.3333333,33.3333333 Z M56.6621978,70 L23.3333333,70 L23.3333333,18.0555556 C23.3333333,15.4475442 25.3341165,13.3333333 27.8022076,13.3333333 L52.1977924,13.3333333 C54.6658835,13.3333333 56.6666667,15.4475442 56.6666667,18.0555556 L56.6666667,70 L56.6621978,70 Z M43.3333333,53.3333333 L50,53.3333333 L50,46.6666667 L43.3333333,46.6666667 L43.3333333,53.3333333 Z M30,53.3333333 L36.6666667,53.3333333 L36.6666667,46.6666667 L30,46.6666667 L30,53.3333333 Z M43.3333333,40 L50,40 L50,33.3333333 L43.3333333,33.3333333 L43.3333333,40 Z M30,40 L36.6666667,40 L36.6666667,33.3333333 L30,33.3333333 L30,40 Z M43.3333333,26.6666667 L50,26.6666667 L50,20 L43.3333333,20 L43.3333333,26.6666667 Z M30,26.6666667 L36.6666667,26.6666667 L36.6666667,20 L30,20 L30,26.6666667 Z M3.33333333,70 L3.33333333,24.8240818 C3.33333333,22.159815 5.33420592,20 7.80240734,20 L20,20 L20,70 L3.33333333,70 Z M10,60 L16.6666667,60 L16.6666667,53.3333333 L10,53.3333333 L10,60 Z M10,46.6666667 L16.6666667,46.6666667 L16.6666667,40 L10,40 L10,46.6666667 Z M10,33.3333333 L16.6666667,33.3333333 L16.6666667,26.6666667 L10,26.6666667 L10,33.3333333 Z" id="Union_32" fill="#e6e6e6" fill-rule="nonzero"></path>
                        </g>
                    </g>
                </g>
            </g>
        </g>
    </g>
</svg>