
<svg width="250px" height="90px" viewBox="0 0 74 74" version="1.1" xmlns="http://www.w3.org/2000/svg" xmlns:xlink="http://www.w3.org/1999/xlink">
    <g id="MainScreen" stroke="none" stroke-width="1" fill="none" fill-rule="evenodd">
        <g id="main" transform="translate(-600.000000, -466.000000)">
            <g id="ячейки" transform="translate(24.000000, 154.000000)">
                <g id="CRM" transform="translate(498.000000, 249.000000)">
                    <g id="иклнка" transform="translate(75.000000, 60.000000)">
                        <rect id="Rectangle-2" x="0" y="0" width="80" height="80"></rect>
                        <g id="icon">
                            <rect id="bounds" x="0" y="0" width="80" height="80"></rect>
                            <path d="M31.0199804,75.1796709 C32.2075979,74.2248106 33.0128576,72.8752416 33.2891766,71.3766284 C37.6324744,72.5740844 42.2188435,72.5740844 46.5621413,71.3766284 C46.8384603,72.8752416 47.64372,74.2248106 48.8313375,75.1796709 C45.9864951,76.1532351 43.0017137,76.655515 39.9949163,76.6666667 C36.9429547,76.6546899 33.9127232,76.1526315 31.0199804,75.1796709 Z M52.8890025,72.3666009 C51.7000191,72.3654803 50.7361222,71.4024944 50.7338772,70.2135126 L50.7338772,68.0685722 C50.7406514,64.8446517 51.9341915,61.7360815 54.0867471,59.336037 C56.5047374,62.0684546 59.9782763,63.6329333 63.626945,63.6329333 C67.2756137,63.6329333 70.7491526,62.0684546 73.167143,59.336037 C75.3603424,61.7215582 76.6025619,64.8285563 76.6585275,68.0685722 L76.6585275,70.2135126 C76.595257,71.4294339 75.584426,72.3791658 74.3669245,72.3666009 L52.8890025,72.3666009 Z M5.47624549,72.3666009 C4.90647759,72.3655221 4.36050472,72.1380077 3.95857354,71.7341662 C3.55664237,71.3303247 3.3317193,70.7832792 3.33334205,70.2135126 L3.33334205,68.0685722 C3.34011624,64.8446517 4.53365637,61.7360815 6.68621188,59.336037 C9.1019581,62.0679037 12.5735297,63.6322495 16.2202989,63.6322495 C19.8670681,63.6322495 23.3386397,62.0679037 25.7543859,59.336037 C27.9069414,61.7360815 29.1004816,64.8446517 29.1072557,68.0685722 L29.1072557,70.2135126 C29.109509,71.3995878 28.1504249,72.3632303 26.9643523,72.3666009 L5.47624549,72.3666009 Z M63.9620283,59.3014083 C60.4636064,59.4310602 57.2372944,57.4222035 55.8099865,54.2255555 C54.3826786,51.0289076 55.0406844,47.2856974 57.472594,44.7674478 C59.9045037,42.2491982 63.6224904,41.4610552 66.8669686,42.7760179 C70.1114468,44.0909805 72.2315932,47.245275 72.224021,50.7460904 C72.1689843,55.1103658 68.9232647,58.7748041 64.5975662,59.3564068 C64.3846792,59.3549952 64.1722126,59.3372896 63.9620283,59.3034453 L63.9620283,59.3014083 Z M7.62933383,50.7460904 C7.61743603,47.2258449 9.75309313,44.0541202 13.0193637,42.7412048 C16.2856342,41.4282894 20.0223042,42.239564 22.4500736,44.7887219 C24.877843,47.3378798 25.5059847,51.1096574 24.0353949,54.3080376 C22.5648051,57.5064178 19.2927354,59.4849091 15.7772556,59.3014083 C15.6204936,59.3209291 15.4626481,59.3304543 15.3046762,59.329926 C10.9530915,58.7984792 7.66959006,55.1237113 7.62933383,50.7399794 L7.62933383,50.7460904 Z M57.0831453,32.3582678 C57.1470788,32.0464416 57.1818574,31.7293427 57.1870313,31.4110719 L57.1870313,29.2579836 C57.1803023,28.3015778 57.0917097,27.3475036 56.9222238,26.4062109 C60.8675836,29.4406947 63.9371807,33.4676517 65.8177175,38.076072 C65.096049,37.9346985 64.3632547,37.8576699 63.6279635,37.8458932 C62.7844765,37.8488923 61.9432937,37.9341703 61.1163666,38.1005157 C60.0597524,35.9978005 58.7009313,34.0611371 57.0831453,32.3521569 L57.0831453,32.3582678 Z M16.2253913,37.8581151 C15.4901001,37.8698918 14.7573059,37.9469204 14.0356374,38.0882938 C15.9161742,33.4798736 18.9857712,29.4529166 22.931131,26.4184328 C22.7616451,27.3597255 22.6730525,28.3137997 22.6663235,29.2702055 L22.6663235,31.4232938 C22.673391,31.7408594 22.7040299,32.0574619 22.7579877,32.3704897 C21.1477991,34.0829511 19.7934756,36.0190711 18.7369882,38.1188486 C17.9105804,37.9468928 17.0694451,37.8554799 16.2253913,37.8458932 L16.2253913,37.8581151 Z M29.1072557,33.5621233 C28.5382369,33.5632094 27.9922405,33.3375088 27.5900739,32.9349599 C27.1879073,32.532411 26.9627255,31.9862004 26.9643523,31.4171829 L26.9643523,29.2640945 C26.9744858,26.0845986 28.1700063,23.0231656 30.3172221,20.6782219 C32.797999,23.4029034 36.3100699,24.9589778 39.9949163,24.9660658 C43.6408379,24.960818 47.1115149,23.4010881 49.5361327,20.6782219 C51.6833486,23.0231656 52.878869,26.0845986 52.8890025,29.2640945 L52.8890025,31.4171829 C52.8901018,31.9881609 52.6630698,32.5359211 52.2583715,32.9387068 C51.8536731,33.3414926 51.3048436,33.5659272 50.7338772,33.5621233 L29.1072557,33.5621233 Z M31.2623811,12.0862383 C31.3182763,7.28260579 35.1934485,3.39930011 39.9969532,3.33333333 C44.7702451,3.41013171 48.5980808,7.3041835 48.5930108,12.0780904 C48.5840399,16.821511 44.7403758,20.6642642 39.9969532,20.672111 C35.2236413,20.6770992 31.3316349,16.8467987 31.2603441,12.0740165 L31.2623811,12.0862383 Z" id="Union_34" fill="#FFFFFF" fill-rule="nonzero"></path>
                        </g>
                    </g>
                </g>
            </g>
        </g>
    </g>
</svg>