
<svg width="250px" height="90px" viewBox="0 0 64 64" version="1.1" xmlns="http://www.w3.org/2000/svg" xmlns:xlink="http://www.w3.org/1999/xlink">
    <g id="MainScreen" stroke="none" stroke-width="1" fill="none" fill-rule="evenodd">
        <g id="main" transform="translate(-358.000000, -224.000000)">
            <g id="ячейки" transform="translate(24.000000, 154.000000)">
                <g id="Dashboard" transform="translate(249.000000, 0.000000)">
                    <g id="иклнка" transform="translate(75.000000, 60.000000)">
                        <rect id="Rectangle-2" x="0" y="0" width="80" height="80"></rect>
                        <g id="icon">
                            <rect id="bounds" x="0" y="0" width="80" height="80"></rect>
                            <path d="M60.6596306,73.3333333 L60.6596306,37.3471103 C60.6664129,36.1835535 61.6148337,35.2452578 62.7792436,35.2501258 L71.2225154,35.2501258 C72.3834963,35.250106 73.3265609,36.1869903 73.3333333,37.3471103 L73.3333333,73.3333333 L60.6596306,73.3333333 Z M43.7730871,73.3333333 L43.7730871,54.152868 C43.7798693,52.9893113 44.7282902,52.0510156 45.8927001,52.0558835 L54.3359719,52.0558835 C54.8945181,52.0530786 55.4311764,52.2727151 55.8272869,52.6662297 C56.2233974,53.0597442 56.4463291,53.5947196 56.4467898,54.152868 L56.4467898,73.3333333 L43.7730871,73.3333333 Z M26.8865435,73.3333333 L26.8865435,45.7526258 C26.8870043,45.1944773 27.109936,44.6595019 27.5060464,44.2659874 C27.9021569,43.8724729 28.4388152,43.6528363 28.9973615,43.6556413 L37.4406332,43.6556413 C37.9991795,43.6528363 38.5358378,43.8724729 38.9319483,44.2659874 C39.3280588,44.6595019 39.5509904,45.1944773 39.5514512,45.7526258 L39.5514512,73.3333333 L26.8865435,73.3333333 Z M10,73.3333333 L10,58.3485948 C10.0067724,57.1884748 10.9498371,56.2515906 12.1108179,56.2516103 L20.5540897,56.2516103 C21.7150706,56.2515906 22.6581353,57.1884748 22.6649077,58.3485948 L22.6649077,73.3333333 L10,73.3333333 Z M43.7730871,37.3471103 C43.7820008,36.7121643 43.8894045,36.0824404 44.0914688,35.4803898 L36.7282322,29.9909659 C34.6055336,31.4100565 31.8359791,31.4100565 29.7132806,29.9909659 L22.350044,35.4803898 C22.5522876,36.0830006 22.6596936,36.7133313 22.6684257,37.348868 C22.6798272,40.2471727 20.716118,42.7814342 17.9052239,43.4960097 C15.0943298,44.2105853 12.1574167,42.9221426 10.7814045,40.3707444 C9.40539237,37.8193463 9.94331229,34.6595818 12.0861909,32.7063737 C14.2290696,30.7531656 17.4271278,30.5076309 19.8434477,32.1108011 L27.2066843,26.6213772 C27.0043431,26.0193962 26.896932,25.3896288 26.8883026,24.7546567 C26.8883042,21.259874 29.7234399,18.4267936 33.2207564,18.4267936 C36.7180729,18.4267936 39.5532085,21.259874 39.5532102,24.7546567 C39.5451933,25.3902586 39.4377686,26.0206992 39.2348285,26.623135 L46.5980651,32.1125588 C47.6407236,31.421428 48.8649038,31.05444 50.116095,31.0579145 C50.6194261,31.0637664 51.120454,31.1268656 51.6094987,31.2459927 L61.9384345,20.1019174 C61.1182229,19.0232684 60.6712423,17.7073582 60.6649077,16.3526567 C60.6549386,13.7910579 62.1914547,11.4761466 64.5569239,10.4889548 C66.9223931,9.50176297 69.6501237,10.0370573 71.4663025,11.8448625 C73.2824813,13.6526677 73.8287881,16.3763157 72.850105,18.7438998 C71.871422,21.1114838 69.5608368,22.6558951 66.9973615,22.6559145 C66.4904164,22.6508868 65.9859704,22.5841876 65.4951627,22.4572898 L55.1662269,33.6048806 C55.9906762,34.6799282 56.4382008,35.9962045 56.4397537,37.3506258 C56.4397521,40.8454086 53.6046164,43.6784889 50.1072999,43.6784889 C46.6099834,43.6784889 43.7748478,40.8454086 43.7748461,37.3506258 L43.7730871,37.3471103 Z" id="Union_31" fill="#FFFFFF" fill-rule="nonzero"></path>
                        </g>
                    </g>
                </g>
            </g>
        </g>
    </g>
</svg>