
<svg width="250px" height="90px" viewBox="0 0 75 60" version="1.1" xmlns="http://www.w3.org/2000/svg" xmlns:xlink="http://www.w3.org/1999/xlink">
    <g id="MainScreen" stroke="none" stroke-width="1" fill="none" fill-rule="evenodd">
        <g id="main" transform="translate(-600.000000, -224.000000)">
            <g id="ячейки" transform="translate(24.000000, 154.000000)">
                <g id="Establishment" transform="translate(498.000000, 0.000000)">
                    <g id="иклнка" transform="translate(75.000000, 60.000000)">
                        <rect id="Rectangle-2" x="0" y="0" width="80" height="80"></rect>
                        <g id="icon">
                            <rect id="bounds" x="0" y="0" width="80" height="80"></rect>
                            <path d="M63.325266,70 L63.325266,46.9219232 L49.4930854,46.9219232 L49.4930854,70 L12.5694957,70 C11.3457765,69.9991165 10.172553,69.5120343 9.30803439,68.6459529 C8.44351573,67.7798715 7.95855321,66.6057703 7.95987981,65.3820515 L7.9598771,40.2655648 C16.6666667,40.2655648 67.9465476,40.2655648 72.5644961,40.3238932 L72.5644961,65.3820515 C72.5626578,67.9317122 70.4962083,69.9981617 67.9465476,70 L63.325266,70 Z M17.1824446,60.7691026 L35.6392399,60.7691026 L35.6392399,46.9219232 L17.1824446,46.9219232 L17.1824446,60.7691026 Z M8.10872396,34.362692 C5.64666265,34.3565541 3.31496586,30.8354673 3.33359867,28.3734689 C3.473587,27.9568369 3.60690923,27.540205 3.74856409,27.12024 L15.2909356,10.9699192 C15.7348598,10.3683601 16.4348795,10.0094073 17.1824446,10 L63.325266,10 C64.0750964,10.0114195 64.7773237,10.3696107 65.2267742,10.9699192 L76.7591465,27.12024 C76.9008014,27.5335389 77.0324571,27.9535039 77.174112,28.3734689 C77.2165265,32.2312465 75.7625326,34.362692 72.2387695,34.362692 C68.7150065,34.362692 10.8368299,34.362692 8.10872396,34.362692 Z" id="Union_33" fill="#FFFFFF" fill-rule="nonzero"></path>
                        </g>
                    </g>
                </g>
            </g>
        </g>
    </g>
</svg>