
<svg width="250px" height="90px" viewBox="0 0 72 72" version="1.1" xmlns="http://www.w3.org/2000/svg" xmlns:xlink="http://www.w3.org/1999/xlink">
    <g id="MainScreen" stroke="none" stroke-width="1" fill="none" fill-rule="evenodd">
        <g id="main" transform="translate(-849.000000, -466.000000)">
            <g id="ячейки" transform="translate(24.000000, 154.000000)">
                <g id="HRM" transform="translate(747.000000, 249.000000)">
                    <g id="иклнка" transform="translate(75.000000, 60.000000)">
                        <rect id="Rectangle-2" x="0" y="0" width="80" height="80"></rect>
                        <g id="icon">
                            <rect id="bounds" x="0" y="0" width="80" height="80"></rect>
                            <path d="M42.0168235,74.0045669 L32.7114181,64.6892516 C32.2705678,64.2545838 32.0223743,63.6613248 32.0223743,63.0422246 C32.0223743,62.4231243 32.2705678,61.8298654 32.7114181,61.3951976 L42.0168235,52.0798822 C42.6842061,51.4217861 43.6810743,51.2279127 44.5464587,51.5879126 C45.4118431,51.9479125 45.9770775,52.7916206 45.9807875,53.7288912 L45.9807875,54.5692516 C50.0307252,52.7600522 53.2134736,49.4400367 54.8501568,45.3173597 L58.1124992,48.5797021 C59.418003,49.8934127 61.193579,50.6321415 63.0456523,50.6321415 C64.8977257,50.6321415 66.6733017,49.8934127 67.9788055,48.5797021 L68.7299767,47.8285309 C65.5854239,58.5584946 56.8821164,66.7477019 45.9807875,69.2339363 L45.9807875,72.3377201 C45.983201,73.2797995 45.4163726,74.1300421 44.5458325,74.4901525 C43.6775083,74.8575261 42.6729298,74.6580242 42.0108776,73.9867291 L42.0168235,74.0045669 Z M8.7651118,45.9852876 L5.66132802,45.9852876 C4.72126409,45.9873291 3.87264761,45.4225669 3.51157681,44.5546083 C3.15050601,43.6866496 3.3481745,42.6866329 4.01231901,42.0213237 L13.3177244,32.7060084 C14.2297348,31.8002745 15.7017501,31.8002745 16.6137605,32.7060084 L25.9191659,42.0213237 C26.5833104,42.6866329 26.7809789,43.6866496 26.4199081,44.5546083 C26.0588373,45.4225669 25.2102208,45.9873291 24.2701568,45.9852876 L23.4297965,45.9852876 C25.2383531,50.034972 28.5576599,53.2177229 32.6797064,54.854657 L29.4173641,58.1169994 C26.6970253,60.8440027 26.6970253,65.2582843 29.4173641,67.9852876 L30.1685352,68.7364588 C19.4400233,65.5901785 11.2521514,56.8874844 8.7651118,45.9872696 L8.7651118,45.9852876 Z M61.4025893,45.3153777 L52.0971839,36.0000624 C51.4333614,35.3342592 51.2341076,34.3350312 51.5917792,33.4655342 C51.9494508,32.5960371 52.7941318,32.0262365 53.734301,32.0202426 L54.5865532,32.0202426 C52.7692022,27.9732266 49.4482415,24.7922978 45.3267334,23.1508732 L48.5890758,19.8984408 C49.9020354,18.59012 50.6400396,16.8128697 50.6400396,14.9593417 C50.6400396,13.1058137 49.9020354,11.3285634 48.5890758,10.0202426 L47.8379046,9.26907143 C58.5679349,12.4147127 66.7569411,21.1185648 69.24331,32.0202426 L72.3589857,32.0202426 C73.2991549,32.0262365 74.1438359,32.5960371 74.5015075,33.4655342 C74.8591791,34.3350312 74.6599252,35.3342592 73.9961028,36.0000624 L64.6807875,45.3153777 C64.2454573,45.7512109 63.654721,45.9961017 63.0387154,45.9961017 C62.4227098,45.9961017 61.8319735,45.7512109 61.3966433,45.3153777 L61.4025893,45.3153777 Z M19.8998866,29.4278102 C18.5921649,28.1144817 16.8151451,27.3761883 14.9617785,27.3761883 C13.1084119,27.3761883 11.3313921,28.1144817 10.0236704,29.4278102 L9.27249919,30.1789813 C12.4154166,19.4443402 21.1246211,11.2531524 32.0315983,8.77357593 L32.0315983,5.65790025 C32.0285289,4.71716488 32.5945848,3.86795739 33.4640882,3.50885249 C34.3335916,3.14974759 35.3339168,3.35203967 35.9955623,4.02078314 L45.3108776,13.3360985 C45.7468311,13.7717671 45.9917712,14.3628315 45.9917712,14.9791615 C45.9917712,15.5954915 45.7468311,16.186556 45.3108776,16.6222246 L35.9955623,25.923666 C35.3307631,26.5872971 34.3317099,26.7852161 33.4641121,26.4251631 C32.5965144,26.06511 32.0311635,25.2179632 32.0315983,24.278621 L32.0315983,23.4342967 C27.9841219,25.2469911 24.802508,28.5658232 23.1622289,32.6861885 L19.8998866,29.4278102 Z" id="Union_35" fill="#FFFFFF" fill-rule="nonzero"></path>
                        </g>
                    </g>
                </g>
            </g>
        </g>
    </g>
</svg>