
<svg width="250px" height="90px" viewBox="0 0 60 68" version="1.1" xmlns="http://www.w3.org/2000/svg" xmlns:xlink="http://www.w3.org/1999/xlink">
    <g id="MainScreen" stroke="none" stroke-width="1" fill="none" fill-rule="evenodd">
        <g id="main" transform="translate(-109.000000, -469.000000)">
            <g id="ячейки" transform="translate(24.000000, 154.000000)">
                <g id="Managments" transform="translate(0.000000, 249.000000)">
                    <g id="иклнка" transform="translate(75.000000, 60.000000)">
                        <rect id="Rectangle-2" x="0" y="0" width="80" height="80"></rect>
                        <g id="icon">
                            <rect id="bounds" x="0" y="0" width="80" height="80"></rect>
                            <path d="M55.8338833,31.4958474 C54.7968351,35.4644085 52.3745869,36.338492 51.0819804,36.5144198 C49.980678,38.8768607 48.5325775,41.0614951 46.785638,42.9959708 C45.9945897,43.7053032 45.0783367,44.2610839 44.0837572,44.6348773 C41.2687546,45.7478479 38.1357028,45.7478479 35.3207002,44.6348773 C34.3260258,44.2612793 33.4097383,43.7054777 32.6188194,42.9959708 C30.8717481,41.0615973 29.4236339,38.8769423 28.322477,36.5144198 C27.0261668,36.338492 24.6076223,35.4644085 23.5705742,31.4958474 C22.9723518,29.7997472 23.1259447,27.9290126 23.9928009,26.3531997 C24.3100039,25.8613336 24.7309573,25.4448046 25.2261475,25.1328162 C25.2261475,24.7087376 25.2446662,24.1791023 25.2946667,23.5753921 C23.9650461,21.4965489 23.7769086,18.8863152 24.7946614,16.6382806 C25.5333401,14.0236154 27.8931531,12.1981422 30.6095386,12.1400842 C31.36959,10.7766129 32.4358766,9.60826203 33.7243868,8.72708464 C35.7576548,7.35270843 38.1630872,6.63405158 40.6170533,6.66780329 C43.9547083,6.72620298 47.1852135,7.85584104 49.831967,9.89006008 C54.4709057,13.3086153 54.0746051,20.89203 53.9597891,22.2679707 C54.0986546,23.2160852 54.1710541,24.1727495 54.1764581,25.1309643 C54.6716482,25.4429527 55.0926016,25.8594817 55.4098046,26.3513478 C56.2775877,27.9274637 56.4318569,29.7989042 55.8338833,31.4958474 Z M69.4025473,61.0461645 L69.4025473,71.8092429 C69.401527,72.6505518 68.7197658,73.3323129 67.8784569,73.3333333 L11.5241486,73.3333333 C10.6828397,73.3323129 10.0010786,72.6505518 10.0000582,71.8092429 L10.0000582,61.0461645 C9.98561681,56.6570886 12.6602416,52.7068736 16.7408713,51.0905021 L30.0743476,45.7571116 C30.4581792,45.6040723 30.8876668,45.6132402 31.2646181,45.7825193 C31.6415694,45.9517984 31.9337534,46.2667144 32.0743691,46.6552693 L35.4262569,55.9146279 L36.0910789,54.0146076 L35.035512,51.4330984 C34.8438704,50.9628961 34.8986649,50.42817 35.1816875,50.0066076 C35.4647101,49.5850451 35.9388821,49.3318747 36.4466382,49.331224 L42.9596711,49.331224 C43.4674272,49.3318747 43.9415992,49.5850451 44.2246218,50.0066076 C44.5076443,50.42817 44.5624388,50.9628961 44.3707973,51.4330984 L43.3152304,54.0146076 L43.9782005,55.9220354 L47.3300883,46.6626768 C47.470704,46.2741219 47.762888,45.9592059 48.1398393,45.7899268 C48.5167906,45.6206477 48.9462782,45.6114798 49.3301098,45.764519 L62.6635862,51.0979096 C66.7409655,52.7138837 69.4142384,56.6602486 69.4025473,61.0461645 Z M61.2765342,62.2239549 C61.2755139,61.382646 60.5937527,60.7008848 59.7524438,60.6998645 L49.5208526,60.6998645 C48.6795437,60.7008848 47.9977825,61.382646 47.9967621,62.2239549 L47.9967621,66.9795615 C47.9977825,67.8208703 48.6795437,68.5026315 49.5208526,68.5036519 L59.7579994,68.5036519 C60.5993083,68.5026315 61.2810695,67.8208703 61.2820899,66.9795615 L61.2820899,62.2239549 L61.2765342,62.2239549 Z" id="clerk-with-tie" fill="#FFFFFF" fill-rule="nonzero"></path>
                        </g>
                    </g>
                </g>
            </g>
        </g>
    </g>
</svg>