<?xml version="1.0" encoding="UTF-8"?>
<svg width="600px" height="80px" viewBox="0 0 161 40" version="1.1" xmlns="http://www.w3.org/2000/svg" xmlns:xlink="http://www.w3.org/1999/xlink">
    <!-- Generator: Sketch 53 (72520) - https://sketchapp.com -->
    <title>Combined Shape</title>
    <desc>Created with Sketch.</desc>
    <g id="MainScreen" stroke="none" stroke-width="1" fill="none" fill-rule="evenodd">
        <g id="logo-copy" transform="translate(-1.000000, 0.000000)" fill="#FFFFFF" fill-rule="nonzero">
            <g id="Group" transform="translate(0.670000, 0.000000)">
                <path d="M13.5526667,1.63933333 L17.2193333,23.2173333 L28.348,1.63933333 L36.3393333,1.63933333 L31.1553333,31.4753333 L25.1306667,31.4753333 L26.606,22.9713333 L29.516,9.69266667 L18.0813333,31.4753333 L13.9626667,31.4753333 L9.96666667,8.93333333 L8.04066667,23.6273333 L6.66733333,31.4753333 L0.663333333,31.4753333 L5.848,1.63933333 L13.5526667,1.63933333 Z M49.886,29.18 C48.3717693,30.9687881 46.1215841,31.9654039 43.7793333,31.8846667 C41.8858529,31.9717576 40.0730753,31.1113504 38.9433333,29.5893333 C37.8495556,28.0853333 37.4255556,26.1046667 37.6713333,23.6473333 L40.0713333,9.30333333 L45.85,9.30333333 L43.4093333,23.7253333 C43.35503,24.1472359 43.348098,24.5738894 43.3886667,24.9973333 C43.3853255,25.5874476 43.6294948,26.1519431 44.0618254,26.5536101 C44.4941559,26.9552771 45.0750577,27.1573336 45.6633333,27.1106667 C47.395843,27.1919503 49.0578593,26.4175055 50.11,25.0386667 L52.8766667,9.30533333 L58.6966667,9.30533333 L54.844,31.4753333 L49.4546667,31.4753333 L49.886,29.18 Z M65.2533333,31.4753333 L59.434,31.4753333 L64.9053333,-5.32907052e-15 L70.7053333,-5.32907052e-15 L65.2533333,31.4753333 Z M81.8726667,3.85266667 L80.9093333,9.30333333 L84.598,9.30333333 L83.84,13.6473333 L80.1513333,13.6473333 L78.266,24.754 C78.1644228,25.2919553 78.2214008,25.8478377 78.43,26.354 C78.6211111,26.7228889 79.0855556,26.9208889 79.8233333,26.948 C80.042,26.9617778 80.6293333,26.9275556 81.5853333,26.8453333 L81.1753333,31.374 C80.1045437,31.7221966 78.9813934,31.8816799 77.856,31.8453333 C75.9568889,31.8182222 74.5428889,31.224 73.614,30.0626667 C72.6851111,28.9013333 72.3026667,27.3302222 72.4666667,25.3493333 L74.3726667,13.6486667 L71.2393333,13.6486667 L71.9933333,9.30333333 L75.1266667,9.30333333 L76.0693333,3.85266667 L81.8726667,3.85266667 Z M90.2126667,31.4753333 L84.3933333,31.4753333 L88.246,9.30333333 L94.066,9.30333333 L90.2126667,31.4753333 Z M88.9213333,3.66666667 C88.8696954,2.81231541 89.1998551,1.97910164 89.8226667,1.392 C90.429841,0.799449263 91.2490845,0.47482526 92.0973333,0.490666667 C92.9310506,0.449250159 93.7477546,0.736484854 94.372,1.29066667 C95.0064772,1.83430588 95.3729647,2.62714547 95.376,3.46266667 C95.4125409,4.28637878 95.1048605,5.08818308 94.5266667,5.676 C93.9196986,6.31039323 93.077966,6.66638099 92.2,6.66 C91.3727002,6.69963841 90.5616217,6.42100911 89.9333333,5.88133333 C89.2830534,5.3306324 88.9120617,4.51875209 88.9213333,3.66666667 Z M115.684,20.6133333 C115.684,24.0697778 114.918889,26.8122222 113.388667,28.8406667 C111.972262,30.813221 109.668745,31.953613 107.241333,31.884 C104.208444,31.884 101.886,30.8173333 100.274,28.684 L100.274,40 L97.836,40 L97.836,9.302 L100.110667,9.302 L100.233333,12.4353333 C101.758873,10.108115 104.400376,8.75998512 107.18,8.89 C109.631527,8.79352433 111.970513,9.92253496 113.42,11.902 C114.931111,13.91 115.686667,16.6968889 115.686667,20.2626667 L115.684,20.6133333 Z M113.226667,20.1833333 C113.226667,17.3553333 112.646,15.1217778 111.484667,13.4826667 C110.397525,11.8802926 108.561669,10.9509018 106.626667,11.0233333 C105.25571,10.9857977 103.905538,11.3644222 102.754,12.1093333 C101.629717,12.8895849 100.765721,13.989554 100.274,15.2666667 L100.274,25.9006667 C100.801696,27.1025674 101.680333,28.1169157 102.794667,28.8106667 C103.966187,29.5010931 105.307932,29.8489443 106.667333,29.8146667 C108.595312,29.8838851 110.421553,28.949447 111.493333,27.3453333 C112.648889,25.6991111 113.226667,23.3117778 113.226667,20.1833333 Z M119.76,20.06 C119.729041,18.0712407 120.153181,16.1017275 121,14.302 C121.763341,12.666124 122.979297,11.2831354 124.504,10.3166667 C126.042887,9.35895413 127.824988,8.86459472 129.637333,8.89266667 C132.373863,8.79907516 135.007661,9.93987344 136.811333,12 C138.643778,14.0675556 139.56,16.8088889 139.56,20.224 L139.56,20.7333333 C139.591619,22.7320174 139.16756,24.7116463 138.32,26.522 C137.56615,28.1563757 136.352179,29.53553 134.826667,30.4906667 C133.278492,31.432176 131.495047,31.9153128 129.683333,31.884 C126.951601,31.9734764 124.323503,30.8342181 122.521333,28.7793333 C120.680444,26.7095556 119.76,23.9671111 119.76,20.552 L119.76,20.06 Z M122.221333,20.7333333 C122.12398,23.0826951 122.852608,25.3919454 124.280667,27.26 C125.571464,28.9221074 127.577014,29.8696678 129.680667,29.8113333 C131.777847,29.8664852 133.775769,28.9189024 135.06,27.26 C136.432889,25.5591111 137.119333,23.3146667 137.119333,20.5266667 L137.119333,20.06 C137.138351,18.4601973 136.816789,16.8746544 136.176,15.4086667 C135.620639,14.0922536 134.704254,12.9597727 133.532667,12.142 C132.384435,11.3656931 131.025183,10.9614088 129.639333,10.984 C127.549387,10.9387855 125.563314,11.8935569 124.293333,13.554 C122.915556,15.2686667 122.226667,17.5131111 122.226667,20.2873333 L122.221333,20.7333333 Z M157.897333,25.836 C157.926202,24.6752643 157.376577,23.5760129 156.430667,22.9026667 C155.097907,22.0189093 153.592738,21.4281123 152.014667,21.1693333 C150.435765,20.8774201 148.897942,20.3957033 147.434667,19.7346667 C146.470748,19.2965301 145.63744,18.6150881 145.016667,17.7573333 C144.473967,16.9189648 144.198493,15.9356275 144.226667,14.9373333 C144.209688,13.2223365 145.027488,11.6061318 146.419333,10.604 C148.041957,9.41193102 150.022328,8.80831988 152.034,8.89266667 C154.172018,8.78606333 156.279351,9.43532697 157.986667,10.7266667 C159.449853,11.8766929 160.282967,13.6509537 160.233333,15.5113333 L157.774,15.5113333 C157.784135,14.2327237 157.177912,13.0274733 156.145333,12.2733333 C154.965613,11.3821434 153.514086,10.9261715 152.036667,10.9826667 C150.660305,10.9145469 149.298612,11.2916132 148.153333,12.058 C147.223006,12.6837971 146.671388,13.7368854 146.686667,14.858 C146.638989,15.8649828 147.09625,16.8295064 147.906,17.43 C148.718889,18.038 150.201111,18.5946667 152.352667,19.1 C154.024699,19.4401209 155.648787,19.9837224 157.188667,20.7186667 C158.147801,21.1924909 158.969668,21.9039651 159.576,22.7853333 C160.116087,23.6662417 160.386753,24.6858723 160.354667,25.7186667 C160.399883,27.5001968 159.548635,29.1856679 158.088,30.2066667 C156.352344,31.3944215 154.276893,31.9841978 152.176,31.8866667 C149.930641,31.990383 147.716486,31.3294975 145.895333,30.012 C144.370183,28.9153293 143.474111,27.1450701 143.493333,25.2666667 L145.952667,25.2666667 C145.997209,26.6063941 146.668772,27.8473047 147.766,28.6173333 C149.074603,29.4730565 150.620281,29.8930777 152.182,29.8173333 C153.646,29.8862323 155.094452,29.4917516 156.321333,28.69 C157.299905,28.071794 157.894438,26.9961523 157.897333,25.8386667 L157.897333,25.836 Z" id="Combined-Shape"></path>
            </g>
        </g>
    </g>
</svg>
