
<svg width="250px" height="90px" viewBox="0 0 51 68" version="1.1" xmlns="http://www.w3.org/2000/svg" xmlns:xlink="http://www.w3.org/1999/xlink">
    <g id="MainScreen" stroke="none" stroke-width="1" fill="none" fill-rule="evenodd">
        <g id="main-2" transform="translate(-112.000000, -220.000000)" fill="#FFFFFF" fill-rule="nonzero">
            <g id="ячейки" transform="translate(24.000000, 154.000000)">
                <g id="Reports">
                    <g id="иклнка" transform="translate(75.000000, 60.000000)">
                        <g id="icon">
                            <path d="M57.7777843,12.2223233 L51.9666723,12.2223233 C51.3820563,10.562108 49.8156927,9.44963378 48.0555606,9.4445451 L43.8611156,9.4445451 C42.5616824,7.69679704 40.5121403,6.66666667 38.3342629,6.66666667 C36.1563855,6.66666667 34.1068434,7.69679704 32.8074103,9.4445451 L28.6111133,9.4445451 C26.8509813,9.44963378 25.2846176,10.562108 24.7000017,12.2223233 L18.8888897,12.2223233 C15.8206406,12.2223233 13.3333333,14.7096306 13.3333333,17.7778797 L13.3333333,67.777887 C13.3333333,70.846136 15.8206406,73.3334433 18.8888897,73.3334433 L57.7777843,73.3334433 C60.8460333,73.3334433 63.3333406,70.846136 63.3333406,67.777887 L63.3333406,17.7778797 C63.3333406,14.7096306 60.8460333,12.2223233 57.7777843,12.2223233 Z M25.8333352,65.0001088 C23.5321484,65.0001088 21.6666679,63.1346283 21.6666679,60.8334415 C21.6666679,58.5322547 23.5321484,56.6667742 25.8333352,56.6667742 C28.134522,56.6667742 30.0000024,58.5322547 30.0000024,60.8334415 C29.9979604,63.1337819 28.1336756,64.9980668 25.8333352,65.0001088 Z M25.8333352,51.1112179 C23.5321484,51.1112179 21.6666679,49.2457374 21.6666679,46.9445506 C21.6666679,44.6433638 23.5321484,42.7778833 25.8333352,42.7778833 C28.134522,42.7778833 30.0000024,44.6433638 30.0000024,46.9445506 C29.9979604,49.244891 28.1336756,51.1091758 25.8333352,51.1112179 Z M25.8333352,37.2223269 C23.5321484,37.2223269 21.6666679,35.3568465 21.6666679,33.0556597 C21.6666679,30.7544729 23.5321484,28.8889924 25.8333352,28.8889924 C28.134522,28.8889924 30.0000024,30.7544729 30.0000024,33.0556597 C29.9979604,35.3560001 28.1336756,37.2202849 25.8333352,37.2223269 Z M27.2222243,15.0001015 L27.2222243,13.6112124 C27.2232444,12.8445731 27.844474,12.2233434 28.6111133,12.2223233 L33.5481511,12.2223233 C34.0424849,12.2217074 34.499339,11.9587343 34.7481513,11.5315824 C35.4804165,10.2411844 36.8496458,9.44385328 38.333337,9.44385328 C39.8170282,9.44385328 41.1862575,10.2411844 41.9185227,11.5315824 C42.167335,11.9587343 42.6241891,12.2217074 43.1185229,12.2223233 L48.0555606,12.2223233 C48.8221999,12.2233434 49.4434296,12.8445731 49.4444497,13.6112124 L49.4444497,15.0001015 C49.4444497,16.534226 48.2007961,17.7778797 46.6666715,17.7778797 L30.0000024,17.7778797 C28.4658779,17.7778797 27.2222243,16.534226 27.2222243,15.0001015 Z M53.611117,62.2223306 L36.9444479,62.2223306 C36.1773856,62.2223306 35.5555588,61.6005038 35.5555588,60.8334415 C35.5555588,60.0663792 36.1773856,59.4445524 36.9444479,59.4445524 L53.611117,59.4445524 C54.3781793,59.4445524 55.0000061,60.0663792 55.0000061,60.8334415 C55.0000061,61.6005038 54.3781793,62.2223306 53.611117,62.2223306 Z M53.611117,48.3334397 L36.9444479,48.3334397 C36.1773856,48.3334397 35.5555588,47.7116129 35.5555588,46.9445506 C35.5555588,46.1774883 36.1773856,45.5556615 36.9444479,45.5556615 L53.611117,45.5556615 C54.3781793,45.5556615 55.0000061,46.1774883 55.0000061,46.9445506 C55.0000061,47.7116129 54.3781793,48.3334397 53.611117,48.3334397 Z M53.611117,34.4445488 L36.9444479,34.4445488 C36.1773856,34.4445488 35.5555588,33.8227219 35.5555588,33.0556597 C35.5555588,32.2885974 36.1773856,31.6667706 36.9444479,31.6667706 L53.611117,31.6667706 C54.3781793,31.6667706 55.0000061,32.2885974 55.0000061,33.0556597 C55.0000061,33.8227219 54.3781793,34.4445488 53.611117,34.4445488 Z" id="Path_368"></path>
                        </g>
                    </g>
                </g>
            </g>
        </g>
    </g>
</svg>