
<svg width="250px" height="90px" viewBox="0 0 68 68" version="1.1" xmlns="http://www.w3.org/2000/svg" xmlns:xlink="http://www.w3.org/1999/xlink">
    <g id="MainScreen" stroke="none" stroke-width="1" fill="none" fill-rule="evenodd">
        <g id="main-2" transform="translate(-603.000000, -220.000000)">
            <g id="ячейки" transform="translate(24.000000, 154.000000)">
                <g id="Settings" transform="translate(498.000000, 0.000000)">
                    <g id="иклнка" transform="translate(75.000000, 60.000000)">
                        <rect id="Rectangle-2" x="0" y="0" width="80" height="80"></rect>
                        <g id="icon">
                            <rect id="bounds" x="0" y="0" width="80" height="80"></rect>
                            <path d="M73.3333333,35.8281481 C73.3308835,34.0776384 71.9119922,32.6594098 70.1614815,32.6577778 L65.1244444,32.6577778 C64.5962425,30.8416551 63.8704204,29.0889512 62.96,27.4311111 L66.5185185,23.8651852 C67.111015,23.2687453 67.4447322,22.4629276 67.4474074,21.6222222 C67.4502666,20.7804165 67.115707,19.9725644 66.5185185,19.3792593 L60.6207407,13.4814815 C59.3480075,12.3291433 57.4090295,12.3291433 56.1362963,13.4814815 L52.5703704,17.0444444 C50.9123199,16.1330031 49.1590659,15.4066621 47.3422222,14.8785185 L47.3422222,9.84148148 C47.3422239,8.08981387 45.9235177,6.66911884 44.1718519,6.66666667 L35.8281481,6.66666667 C34.0776384,6.66911646 32.6594098,8.0880078 32.6577778,9.83851852 L32.6577778,14.8755556 C30.8409937,15.4038688 29.0877579,16.1302022 27.4296296,17.0414815 L23.8637037,13.4814815 C22.609032,12.2846306 20.6354124,12.2846306 19.3807407,13.4814815 L13.4814815,19.3792593 C12.2452493,20.6184789 12.2452493,22.6244841 13.4814815,23.8637037 L17.037037,27.4281481 C16.1269682,29.0866752 15.4011649,30.8398303 14.8725926,32.6562963 L9.83555556,32.6562963 C8.08562442,32.6595619 6.66829678,34.0782147 6.66666667,35.8281481 L6.66666667,44.1703704 C6.66911646,45.9208801 8.0880078,47.3391088 9.83851852,47.3407407 L14.8755556,47.3407407 C15.4035881,49.1573963 16.1294153,50.9106093 17.04,52.5688889 L13.4814815,56.1333333 C12.8902872,56.7282235 12.5566633,57.5316878 12.5525926,58.3703704 C12.5480795,59.2146756 12.8827406,60.0254416 13.4814815,60.6207407 L19.3792593,66.5185185 C20.6517265,67.6715466 22.5912365,67.6715466 23.8637037,66.5185185 L27.4281481,62.9540741 C29.0862246,63.8654614 30.8394725,64.5917998 32.6562963,65.12 L32.6562963,70.157037 C32.6554776,71.9098608 34.075325,73.3316977 35.8281481,73.3333333 L44.1718519,73.3333333 C45.9227,73.3316987 47.3414056,71.9123302 47.3422222,70.1614815 L47.3422222,65.1244444 C49.1592853,64.5969255 50.9126066,63.8705567 52.5703704,62.9585185 L56.1348148,66.5185185 C57.389184,67.7161245 59.3634086,67.7161245 60.6177778,66.5185185 L66.5185185,60.6207407 C67.7547507,59.3815211 67.7547507,57.3755159 66.5185185,56.1362963 L62.9555556,52.5703704 C63.866151,50.912096 64.5919788,49.1588817 65.12,47.3422222 L70.157037,47.3422222 C71.909283,47.3430416 73.3308805,45.9240963 73.3333333,44.1718519 L73.3333333,35.8281481 Z M40,51.5555556 C33.6180429,51.5555556 28.4444444,46.3819571 28.4444444,40 C28.4444444,33.6180429 33.6180429,28.4444444 40,28.4444444 C46.3819571,28.4444444 51.5555556,33.6180429 51.5555556,40 C51.5555556,46.3819571 46.3819571,51.5555556 40,51.5555556 Z" id="Path_461" fill="#FFFFFF" fill-rule="nonzero"></path>
                        </g>
                    </g>
                </g>
            </g>
        </g>
    </g>
</svg>